<svg width="64" height="64" viewBox="0 0 64 64" fill="none" xmlns="http://www.w3.org/2000/svg">
  <rect width="64" height="64" rx="12" fill="url(#gradient)"/>
  <path d="M32 16C32 16 38 20 38 26C38 32 32 36 32 36C32 36 26 32 26 26C26 20 32 16 32 16Z" fill="white" opacity="0.9"/>
  <path d="M32 28C32 28 38 32 38 38C38 44 32 48 32 48C32 48 26 44 26 38C26 32 32 28 32 28Z" fill="white" opacity="0.7"/>
  <circle cx="32" cy="26" r="3" fill="white"/>
  <circle cx="32" cy="38" r="3" fill="white"/>
  <defs>
    <linearGradient id="gradient" x1="0" y1="0" x2="64" y2="64" gradientUnits="userSpaceOnUse">
      <stop stop-color="#3B82F6"/>
      <stop offset="1" stop-color="#8B5CF6"/>
    </linearGradient>
  </defs>
</svg>

